<?xml version="1.0" encoding="utf-8"?>
<!-- Generator: Adobe Illustrator 24.1.2, SVG Export Plug-In . SVG Version: 6.00 Build 0)  -->
<svg version="1.1" xmlns="http://www.w3.org/2000/svg" xmlns:xlink="http://www.w3.org/1999/xlink" x="0px" y="0px"
	 viewBox="0 0 1920 1080" style="enable-background:new 0 0 1920 1080;" xml:space="preserve">
<style type="text/css">
	.st0{display:none;}
	.st1{display:inline;fill:#C2BEF9;}
	.st2{display:inline;fill:#C8CBFF;}
	.st3{display:inline;fill:#FFFFFF;}
	.st4{display:inline;fill:#D4D4FC;}
	.st5{display:inline;fill:none;stroke:#6E54EB;stroke-width:14;stroke-linecap:round;stroke-linejoin:round;stroke-miterlimit:10;}
	
		.st6{display:inline;fill:#FFFFFF;stroke:#6E54EB;stroke-width:14;stroke-linecap:round;stroke-linejoin:round;stroke-miterlimit:10;}
	.st7{fill:#D4D4FC;}
	.st8{fill:#FFFFFF;}
	.st9{fill:none;stroke:#6E54EB;stroke-width:14;stroke-linecap:round;stroke-linejoin:round;stroke-miterlimit:10;}
</style>
<g id="Capa_1" class="st0">
	
		<rect x="832.6" y="650.57" transform="matrix(0.7233 0.6905 -0.6905 0.7233 790.0271 -403.7813)" class="st1" width="132.57" height="266.79"/>
	<circle class="st2" cx="601.21" cy="608.63" r="118.48"/>
	
		<rect x="632.7" y="570.48" transform="matrix(0.7233 0.6905 -0.6905 0.7233 711.5076 -368.006)" class="st3" width="364.56" height="266.79"/>
	
		<rect x="1080.08" y="272.56" transform="matrix(0.7233 0.6905 -0.6905 0.7233 607.7509 -633.6366)" class="st1" width="29" height="338.04"/>
	
		<rect x="881.43" y="677.59" transform="matrix(0.7233 0.6905 -0.6905 0.7233 811.3677 -410.4568)" class="st4" width="72.91" height="259.33"/>
	
		<rect x="766.58" y="549.55" transform="matrix(0.7233 0.6905 -0.6905 0.7233 651.7117 -499.2458)" class="st4" width="364.56" height="28.17"/>
	<path class="st5" d="M1026.63,730.13c-44.64-42.61-255.68-244.07-255.68-244.07l56.6-59.3l263.91,251.93c0,0-8.69,9.1-19.26,20.17"
		/>
	<path class="st5" d="M719.95,539.45c30.94-32.42,55.24-57.87,55.24-57.87l263.91,251.93L854.93,926.43L591.02,674.5
		c0,0,15.4-16.14,37.3-39.08"/>
	<path class="st5" d="M653.9,608.64c2.8-2.94,5.65-5.92,8.52-8.93"/>
	<path class="st5" d="M1076.72,379.74c33.32-34.9,59.26-62.08,59.26-62.08l50.94,48.63l-202.5,212.13l-50.94-48.63
		c0,0,12.7-13.3,31.74-33.25"/>
	<path class="st5" d="M998.3,461.89c3.72-3.9,7.52-7.88,11.36-11.9"/>
	<path class="st5" d="M1197.82,306.47c12.29,11.73,24.18,23.08,24.18,23.08l-39.86,41.76l-50.94-48.63l39.86-41.76
		c0,0,6.12,5.84,14.12,13.48"/>
	<path class="st5" d="M798.86,514.38c0,0-11.47,12.01-25.29,26.49"/>
	<path class="st5" d="M745.16,570.63c-10.82,11.34-18.96,19.86-18.96,19.86"/>
	<path class="st5" d="M1008.62,714.61c0,0-8.1,8.49-18.9,19.8"/>
	<path class="st5" d="M960.6,764.92c-13.53,14.17-24.64,25.81-24.64,25.81"/>
	<path class="st5" d="M850.4,563.58c0,0-31.82,33.34-59.38,62.2"/>
	<path class="st5" d="M777.53,639.92c-14.88,15.59-26.1,27.34-26.1,27.34"/>
	<path class="st5" d="M901.94,612.78c0,0-15.14,15.86-34.52,36.16"/>
	<path class="st5" d="M837.59,680.19c-6.61,6.92-13.12,13.74-19.18,20.09"/>
	<path class="st5" d="M797.11,722.6c-7.32,7.66-11.88,12.44-11.88,12.44"/>
	<line class="st5" x1="955.28" y1="663.7" x2="856.31" y2="767.38"/>
	<circle class="st2" cx="970.48" cy="233.2" r="33.56"/>
	<circle class="st2" cx="1183.92" cy="642.56" r="55.51"/>
	<circle class="st5" cx="865.41" cy="301.28" r="21.13"/>
	<circle class="st5" cx="1259.62" cy="495.47" r="43.5"/>
	<circle class="st5" cx="1046.69" cy="814.53" r="31.9"/>
	<circle class="st5" cx="1193.66" cy="708.56" r="18.64"/>
</g>
<g id="Capa_2" class="st0">
	<circle class="st4" cx="772.62" cy="423.71" r="156.71"/>
	<circle class="st4" cx="1432.39" cy="723.69" r="86.7"/>
	<circle class="st4" cx="1173.21" cy="352.31" r="69.55"/>
	<circle class="st4" cx="649.29" cy="887.36" r="106.64"/>
	<rect x="974.35" y="523.7" class="st4" width="371.34" height="386.9"/>
	<path class="st3" d="M833.88,523.86c-129.13,0-231.89,0-231.89,0v-92.73h743.69v92.73c0,0-178.01,0-359.85,0"/>
	<path class="st3" d="M924.44,523.86c-3.07,0-6.14,0-9.21,0"/>
	<rect x="601.99" y="523.86" class="st3" width="398.74" height="384.83"/>
	<path class="st5" d="M1345.68,723.84c0,6.72,0,13.38,0,19.95"/>
	<path class="st5" d="M1345.68,782.17c0,12.33,0,24.16,0,35.3"/>
	<path class="st5" d="M1345.68,868.12c0,26.35,0,42.49,0,42.49s-124.07,0-270.83,0"/>
	<path class="st5" d="M1036.48,910.6c-13.72,0-27.56,0-41.44,0"/>
	<path class="st5" d="M927.51,910.6c-6.16,0-12.3,0-18.42,0"/>
	<path class="st5" d="M833.88,910.6c-128.99,0-231.61,0-231.61,0V430.95h743.42c0,0,0,84.39,0,182.38"/>
	<path class="st5" d="M810.86,523.7c-117.97,0-208.59,0-208.59,0v-92.65h743.42v92.65c0,0-175.04,0-355.25,0"/>
	<path class="st5" d="M930.58,523.7c-9.77,0-19.5,0-29.16,0"/>
	<path class="st6" d="M945.3,735.68H645.4c-6.6,0-12-5.4-12-12v-0.46c0-6.6,5.4-12,12-12h299.9c6.6,0,12,5.4,12,12v0.46
		C957.3,730.28,951.9,735.68,945.3,735.68z"/>
	<path class="st6" d="M1116.29,580.03c-118.85,0-250.89,0-250.89,0c-6.12,0-11.13-5.01-11.13-11.13v-2.2
		c0-6.12,5.01-11.13,11.13-11.13h436.54c6.12,0,11.13,5.01,11.13,11.13v2.2c0,6.12-5.01,11.13-11.13,11.13c0,0-23.59,0-59.79,0"/>
	<path class="st6" d="M1197.64,580.03c-8.41,0-17.13,0-26.1,0"/>
	<path class="st6" d="M769.42,631.92c-73.75,0-124.89,0-124.89,0c-6.12,0-11.13-5.01-11.13-11.13v-2.2
		c0-6.12,5.01-11.13,11.13-11.13h657.42c6.12,0,11.13,5.01,11.13,11.13v2.2c0,6.12-5.01,11.13-11.13,11.13c0,0-202.04,0-382.11,0"/>
	<path class="st6" d="M867.65,631.92c-7.77,0-15.45,0-23.02,0"/>
	<path class="st6" d="M735.65,683.8c-55.14,0-91.13,0-91.13,0c-6.12,0-11.13-5.01-11.13-11.13v-2.2c0-6.12,5.01-11.13,11.13-11.13
		h657.42c6.12,0,11.13,5.01,11.13,11.13v2.2c0,6.12-5.01,11.13-11.13,11.13c0,0-177.71,0-348.35,0"/>
	<path class="st6" d="M859.97,683.8c-17.45,0-34.41,0-50.65,0"/>
	<path class="st6" d="M665.04,580.03c-12.46,0-20.52,0-20.52,0c-6.12,0-11.13-5.01-11.13-11.13v-2.2c0-6.12,5.01-11.13,11.13-11.13
		h157.11c6.12,0,11.13,5.01,11.13,11.13v2.2c0,6.12-5.01,11.13-11.13,11.13c0,0-47.71,0-90.54,0"/>
	<path class="st6" d="M991.99,787.57H645.4c-6.6,0-12-5.4-12-12v-0.46c0-6.6,5.4-12,12-12h346.6c6.6,0,12,5.4,12,12v0.46
		C1003.99,782.17,998.59,787.57,991.99,787.57z"/>
	<path class="st6" d="M842.27,841.67H645.4c-6.6,0-12-5.4-12-12v-0.46c0-6.6,5.4-12,12-12h196.88c6.6,0,12,5.4,12,12v0.46
		C854.27,836.27,848.87,841.67,842.27,841.67z"/>
	<circle class="st5" cx="1283.42" cy="477.01" r="17.05"/>
	<circle class="st5" cx="1212.27" cy="477.01" r="17.05"/>
	<circle class="st5" cx="1137.41" cy="477.75" r="17.05"/>
	<circle class="st5" cx="515.92" cy="394.36" r="27.05"/>
	<circle class="st5" cx="568.91" cy="780.9" r="17.79"/>
	<circle class="st5" cx="971.38" cy="362.86" r="28.91"/>
	<circle class="st5" cx="956.93" cy="966.56" r="14.45"/>
</g>
<g id="Capa_3">
	<circle class="st7" cx="759.36" cy="406.82" r="91.33"/>
	<circle class="st7" cx="966.56" cy="314.41" r="18.41"/>
	<circle class="st7" cx="1194.33" cy="775.37" r="77.25"/>
	<circle class="st7" cx="1033.7" cy="819.77" r="16.24"/>
	<circle class="st7" cx="807.37" cy="845.4" r="16.6"/>
	<circle class="st7" cx="1278.8" cy="436.06" r="28.88"/>
	<circle class="st7" cx="566.96" cy="554.46" r="41.87"/>
	<rect x="631.94" y="446.16" class="st8" width="706.06" height="337.87"/>
	<rect x="1211.27" y="446.45" class="st7" width="126.73" height="168.42"/>
	<path class="st9" d="M1006.95,446.06c7.19,0,14.36,0,21.51,0"/>
	<path class="st9" d="M1045.19,446.06c15.33,0,30.51,0,45.41,0"/>
	<path class="st9" d="M1128.84,446.06c117.38,0,209.16,0,209.16,0s0,23.38,0,52.67"/>
	<path class="st9" d="M1338,534.59c0,3.2,0,6.4,0,9.56"/>
	<path class="st9" d="M1338,568.05c0,25.8,0,45.42,0,45.42H631.94c0,0,0-27.25,0-59.76"/>
	<path class="st9" d="M631.94,517.86c0-37.53,0-71.8,0-71.8s145.57,0,304.51,0"/>
	<path class="st9" d="M1145.42,505.74H691.99c-6.6,0-12-5.4-12-12v-8.55c0-6.6,5.4-12,12-12h453.43c6.6,0,12,5.4,12,12v8.55
		C1157.42,500.34,1152.02,505.74,1145.42,505.74z"/>
	<rect x="1060.36" y="614.03" class="st7" width="277.64" height="170.09"/>
	<path class="st9" d="M696.67,613.47h-4.68c-6.6,0-12-5.4-12-12v-27.93c0-6.6,5.4-12,12-12h4.68c6.6,0,12,5.4,12,12v27.93
		C708.67,608.07,703.27,613.47,696.67,613.47z"/>
	<path class="st9" d="M1268.65,614.25h-7c-6.6,0-12-5.4-12-12v-27.93c0-6.6,5.4-12,12-12h7c6.6,0,12,5.4,12,12v27.93
		C1280.65,608.85,1275.25,614.25,1268.65,614.25z"/>
	<circle class="st9" cx="1210.89" cy="489.47" r="16.28"/>
	<circle class="st9" cx="1265.15" cy="489.47" r="16.28"/>
	<path class="st9" d="M631.94,661.25c0-25.44,0-44.68,0-44.68H1338c0,0,0,16.29,0,38.71"/>
	<path class="st9" d="M1338,703.08c0,40.9,0,80.91,0,80.91s-66.07,0-157.78,0"/>
	<path class="st9" d="M1116.89,783.98c-207.1,0-484.95,0-484.95,0s0-14.75,0-35.49"/>
	<path class="st9" d="M631.94,711.45c0-5.15,0-10.35,0-15.54"/>
	<path class="st9" d="M775.13,643.7c6.53,0,13.31,0,20.32,0"/>
	<path class="st9" d="M851.61,643.7c132.34,0,297.15,0,297.15,0c4.76,0,8.66,3.9,8.66,8.66v15.23c0,4.76-3.9,8.66-8.66,8.66h-460.1
		c-4.76,0-8.66-3.9-8.66-8.66v-15.23c0-4.76,3.9-8.66,8.66-8.66c0,0,2.24,0,6.42,0"/>
	<path class="st9" d="M696.67,783.98h-4.68c-6.6,0-12-5.4-12-12v-27.93c0-6.6,5.4-12,12-12h4.68c6.6,0,12,5.4,12,12v27.93
		C708.67,778.58,703.27,783.98,696.67,783.98z"/>
	<path class="st9" d="M1268.65,784.76h-7c-6.6,0-12-5.4-12-12v-27.93c0-6.6,5.4-12,12-12h7c6.6,0,12,5.4,12,12v27.93
		C1280.65,779.36,1275.25,784.76,1268.65,784.76z"/>
	<circle class="st9" cx="1210.89" cy="659.98" r="16.28"/>
	<circle class="st9" cx="1265.15" cy="659.98" r="16.28"/>
	<circle class="st9" cx="608.84" cy="319.1" r="23.1"/>
	<circle class="st9" cx="969.45" cy="842.87" r="32.13"/>
	<circle class="st9" cx="1271.22" cy="340.4" r="21.3"/>
	<circle class="st9" cx="790.77" cy="392.02" r="15.16"/>
	<circle class="st9" cx="575.63" cy="626.65" r="23.82"/>
</g>
</svg>
