<?xml version="1.0" encoding="utf-8"?>
<!-- Generator: Adobe Illustrator 24.1.2, SVG Export Plug-In . SVG Version: 6.00 Build 0)  -->
<svg version="1.1" id="Capa_1" xmlns="http://www.w3.org/2000/svg" xmlns:xlink="http://www.w3.org/1999/xlink" x="0px" y="0px"
	 viewBox="0 0 1280 960" style="enable-background:new 0 0 1280 960;" xml:space="preserve">
<style type="text/css">
	.st0{fill:none;stroke:#FFFFFF;stroke-width:2;}
</style>
<path class="st0" d="M71.48,22.6c12-8.67,23.58-15.9,40.16-14.89c119.51,7.28,239.1,13.31,358.62,20.46
	c26.47,1.58,50.27,12.76,68.95,31.38c8.55,8.52,12.83,21.4,18.77,32.45c63.8,118.72,127.58,237.45,191.29,356.22
	c40.08,74.7,80.01,149.49,120.08,224.2c29.08,54.23,58.57,108.24,87.25,162.69c7.69,14.61,7.34,30.15-2.12,44.6
	c-1.49,0.85-2.76,1.85-2.51,3.84l-0.29-0.46c0,0,0.35,0.41,0.35,0.41c-3.67,1.86-7.35,3.72-11.02,5.58c-0.7,0.86-2.5,0.94-1.9,2.71
	l0.05-0.09c-5.61-0.56-9.99,3.39-15.68,3.67c-53.5,2.66-106.97,5.97-160.47,8.63c-5.7,0.28-7.25,2.33-7.49,7.09
	c-1.29-4.73-5.18-3.74-8.45-3.64c-11.79,0.37-23.57,1.19-35.36,1.27c-6.89,0.05-12.28,2.22-16.27,7.81c-0.47-1.05-0.94-2.1-1.4-3.16
	c3.3-6.94-2.91-3.83-4.62-3.84c-43.01-0.13-85.83,3.95-128.73,6.15c-27.5,1.41-54.56,1.18-79.31-13.32
	c-2.27-1.33-6.03-1.22-5.59-5.39l-0.15,0.15c3.99-0.49,7.28,1.33,10.71,3c15.08,7.36,30.78,11.51,47.84,11.23
	c62.06-1.02,123.89-6.36,185.84-9.33c60.8-2.92,121.57-6.46,182.32-10.19c12.25-0.75,24.45-0.63,36.57-6.04
	c17.15-7.66,20.25-31.37,10.86-46.56l0.04,0.12c0.97-2.14,0.05-3.51-1.84-4.49c1.14-3.81-1.01-6.79-2.64-9.82
	c-7.55-14.1-15.23-28.13-22.77-42.22c-27.29-50.96-54.5-101.96-81.81-152.9c-29.12-54.31-58.38-108.54-87.47-162.86
	c-32.14-59.99-64.27-120-96.22-180.09c-33.33-62.69-67.16-125.14-99.29-188.44c-12.61-24.84-29.63-43.68-53.94-56.61
	c-18.39-9.78-38.71-9.15-58.37-10.35c-30.66-1.87-61.35-3.51-92.02-5.31c-30.13-1.76-60.28-3.4-90.41-5.24
	c-36.82-2.25-73.74-3.01-110.51-5.85c-13.58-1.05-27.26-0.34-40.83-2.56c-7.05-1.15-15.32-3.04-20.93,4.57
	c-0.66,1.66-4,0.7-3.46,3.53l0.03-0.11c-8.41,0.38-13.69,4.89-16.6,12.55c-5.51-2.32,0.7-6.25-1.24-9.06c0,0,0.28-0.18,0.27-0.18
	C70.34,23.48,70.91,23.04,71.48,22.6z"/>
<path class="st0" d="M694.03,913.38c0.47,1.05,0.94,2.1,1.41,3.15c-0.39,1.66-0.79,3.32-1.18,4.98c2.16,2.79,5.25,1.81,8,1.82
	c14.65,0.05,29.3-0.03,43.95-0.06c42.88-2.21,85.78-4.12,128.64-6.76c19.1-1.18,37.97-4.34,55.19-13.7
	c4.59-2.5,8.97-5.03,9.11-11.11l-0.05,0.09c2.12,0.14,2.05-1.26,1.9-2.71c3.67-1.86,7.34-3.72,11.02-5.58
	c-10.26,22.27-29.87,30.43-52.16,34.14c-43.55,7.26-87.68,6.29-131.55,8.8c-52.06,2.98-104.18,5.15-156.27,7.69
	c-30.85,1.5-61.76,4.96-92.53,3.95c-26.26-0.86-50.65-11.03-72.48-26.63c-15.27-10.92-24.96-25.66-32.59-42.26
	c-42.26-91.82-84.59-183.6-126.85-275.43C236.63,483,185.71,372.2,134.75,261.42c-26.82-58.29-53.87-116.47-80.4-174.9
	c-7.01-15.44-9.77-31.33-0.11-47.44c3.94-6.58,9.16-11.04,15.26-15c1.93,2.81-4.27,6.74,1.23,9.06c-1.93,6.86-0.63,13.87-0.46,21.1
	c-9.65-4.24-3.16-13.33-6.53-19.3c-11.67,10.4-14.29,32.04-6.35,49.15c28,60.34,56.07,120.65,83.86,181.08
	c68.34,148.61,136.49,297.3,204.81,445.92c23.42,50.94,47.22,101.7,70.63,152.65c8.12,17.68,17.78,33.97,34.4,45.09
	c22.41,14.99,46.79,24.92,73.94,24.92c23.56,0,47.11-2.07,70.67-3.21c12.22-0.59,24.43-1.14,36.65-1.78
	c4.05-0.21,3.68-0.28,3.3-4.74c-0.21-2.43,4.14-2.62,4.19-5.82c0.02-0.98,2.27-0.99,2.67,0.22c0.64,1.96,4.11,1.93,3.18,4.66
	c-0.57,1.68-4.27,1.37-3.25,3.62c12.52,0,24.7,0.09,36.88-0.04c6.91-0.07,14.21,0.05,13.13-10.4
	C692.36,915.37,693.48,914.34,694.03,913.38z"/>
<path class="st0" d="M751.22,698.21c-0.14-1.14,0.58-1.71,1.43-2.19C752.58,697.01,752.06,697.72,751.22,698.21z"/>
<path class="st0" d="M694.03,913.38c-0.56,0.97-1.67,1.99-1.58,2.89c1.09,10.45-6.22,10.33-13.13,10.4
	c-12.18,0.13-24.36,0.04-36.88,0.04c-1.02-2.25,2.69-1.94,3.25-3.62c0.92-2.73-2.54-2.71-3.18-4.66c-0.4-1.21-2.66-1.2-2.67-0.22
	c-0.05,3.2-4.4,3.39-4.19,5.82c0.38,4.46,0.75,4.53-3.3,4.74c-12.21,0.64-24.43,1.19-36.65,1.78c-23.56,1.15-47.11,3.21-70.67,3.21
	c-27.15,0-51.54-9.92-73.94-24.92c-16.62-11.12-26.28-27.42-34.4-45.09c-23.41-50.94-47.21-101.71-70.63-152.65
	c-68.32-148.62-136.47-297.31-204.81-445.92C113.46,204.74,85.39,144.44,57.39,84.1c-7.94-17.11-5.32-38.75,6.35-49.15
	c3.36,5.97-3.12,15.06,6.53,19.3c-0.17-7.23-1.47-14.24,0.46-21.1c2.91-7.66,8.19-12.17,16.6-12.55c1.15,1.06,0.58,2.03-0.22,2.9
	c-8.18,8.9-6.6,18.54-2.05,28.31c45.68,97.88,91.44,195.72,137.09,293.62c42.7,91.58,85.23,183.23,127.92,274.81
	c35.21,75.53,70.87,150.85,105.69,226.56c12.95,28.16,52.41,51.61,83.33,47.94c26.55-3.15,53.49-3.15,80.26-4.43
	c101.26-4.84,202.53-9.66,303.8-14.4c4.05-0.19,7.15-1.85,10.28-4.12c11.14-8.04,16.03-19.14,16.35-32.57
	c9.4,15.19,6.29,38.9-10.86,46.56c-12.12,5.42-24.32,5.29-36.57,6.04c-60.75,3.73-121.52,7.27-182.32,10.19
	c-61.95,2.97-123.78,8.31-185.84,9.33c-17.06,0.28-32.76-3.86-47.84-11.23c-3.42-1.67-6.72-3.49-10.71-3
	c0.17-4.21-3.65-4.95-6.1-6.62c-16.1-10.97-27.24-26.42-35.93-43.13c-12.08-23.22-22.24-47.43-33.21-71.23
	c-21.04-45.68-42.07-91.38-63.1-137.06c-22.85-49.64-45.7-99.28-68.56-148.92c-8.14-17.67-16.22-35.37-24.54-52.95
	c-0.74-1.57-0.67-5.67-4.1-3.97c-3,1.49-0.33,4.07,0.18,6.1c0.28,1.1,1.03,2.07,1.5,3.14c12.56,28.26,25.35,56.46,38.5,84.42
	c22.39,47.61,44.1,95.52,66.3,143.21c27.47,59.02,54.44,118.27,82.01,177.24c7.3,15.61,18.28,28.86,30.66,40.82
	c4.6,4.45,9.99,7.8,16.53,8.82c-0.44,4.17,3.32,4.07,5.59,5.39c24.74,14.5,51.81,14.73,79.31,13.32
	c42.91-2.2,85.72-6.28,128.73-6.15C691.13,909.55,697.33,906.43,694.03,913.38z M236.09,421.01c-1.06-2.87-1.81-5.37-2.89-7.73
	c-16.57-36.07-33.14-72.14-49.91-108.11c-0.86-1.83-0.57-6.51-4.28-4.88c-3.43,1.5-0.54,4.63,0.41,6.72
	c16.5,36.03,33.09,72.01,49.68,107.99C230.4,417.8,231.03,421.33,236.09,421.01z M174.78,288.05c-0.94-2.68-1.61-5.18-2.67-7.5
	c-16.57-36.07-33.2-72.11-49.81-108.15c-0.61-1.32-1.31-2.59-1.86-3.93c-0.49-1.21-1.11-2.11-2.52-1.39
	c-1.09,0.56-1.87,1.55-1.4,2.83c0.59,1.6,1.44,3.11,2.16,4.66c16.5,36.02,32.97,72.06,49.57,108.04
	C169.33,284.97,169.94,288.42,174.78,288.05z M114.29,156.19c-13.7-33.31-30.15-63.63-42.88-97.16
	C69.01,69.31,104.94,150.73,114.29,156.19z"/>
<path class="st0" d="M949.78,839.23c-0.32,13.43-5.21,24.53-16.35,32.57c-3.14,2.26-6.23,3.93-10.28,4.12
	c-101.27,4.74-202.53,9.55-303.8,14.4c-26.77,1.28-53.7,1.28-80.26,4.43c-30.92,3.67-70.38-19.78-83.33-47.94
	c-34.81-75.71-70.47-151.04-105.69-226.56c-42.7-91.58-85.23-183.23-127.92-274.81c-45.64-97.9-91.4-195.74-137.09-293.62
	c-4.56-9.76-6.14-19.41,2.05-28.31c0.8-0.87,1.38-1.84,0.22-2.9c0,0-0.03,0.11-0.03,0.11c5.62,0.99,9.83-2.65,15.49-4.11
	c-4.84-3.04-8.29,0.48-12.03,0.58c5.61-7.61,13.88-5.73,20.93-4.57c13.57,2.22,27.24,1.51,40.83,2.56
	c36.77,2.84,73.69,3.6,110.51,5.85c30.13,1.84,60.28,3.48,90.41,5.24c30.68,1.79,61.36,3.43,92.02,5.31
	c19.67,1.2,39.98,0.57,58.37,10.35c24.31,12.93,41.33,31.77,53.94,56.61c32.13,63.3,65.96,125.75,99.29,188.44
	c31.95,60.1,64.08,120.1,96.22,180.09c29.1,54.32,58.36,108.55,87.47,162.86c27.32,50.94,54.53,101.94,81.81,152.9
	c7.55,14.1,15.22,28.13,22.77,42.22c1.63,3.04,3.77,6.01,2.64,9.82c0.35,1.6-1.16,3.97,1.84,4.48L949.78,839.23z M112.88,78.59
	c1.78,4.12,2.95,7.05,4.28,9.91c53.16,114.25,106.32,228.49,159.5,342.73c57.23,122.94,114.51,245.86,171.55,368.89
	c2.93,6.32,6.21,8.14,13.14,7.77c37.24-2.02,74.51-3.47,111.78-5.03c110.92-4.63,221.83-9.28,332.76-13.69
	c7.38-0.29,7.33-2.14,4.27-7.81c-16.69-31.02-33.06-62.22-49.6-93.32C783.47,543.05,706.37,398.08,629.28,253.1
	c-25.56-48.07-51.21-96.09-76.52-144.29c-3.12-5.94-6.73-8.3-13.43-8.23c-10.47,0.1-20.95-0.92-31.42-1.47
	c-107.37-5.64-214.74-11.3-322.11-16.91C161.97,80.94,138.13,79.83,112.88,78.59z M549.66,94.32
	c-3.83-12.21-12.52-21.59-22.55-30.31c-16.72-14.54-34.61-25.58-57.96-23.95c-4.62,0.32-9.31-0.3-13.96-0.57
	c-56.12-3.26-112.24-6.53-168.36-9.79c-38.09-2.21-76.17-4.69-114.28-6.52c-21.53-1.04-43.07-3.95-64.6-2.29
	c-19.06,1.47-27.55,9.89-18.81,29.08c5.42,11.9,11,23.73,16.53,35.59c63.52,136.21,127.05,272.42,190.58,408.63
	c54.3,116.44,108.23,233.06,163.14,349.22c14.6,30.88,40.18,47.73,75.37,46.47c39.59-1.42,79.17-3.47,118.74-5.44
	c89.62-4.44,179.24-9,268.85-13.52c2.27-0.11,4.45,0.14,6.68-1.24c14.76-9.14,19.4-25.24,11.41-40.77
	c-4.52-8.79-9.31-17.44-13.89-26.21c-3.23-6.19-4.99-10.28-15.26-9.31c-35.92,3.4-72.11,4-108.21,5.47
	c-75.39,3.08-150.79,6.02-226.18,9.06c-39.88,1.61-79.76,3.2-119.63,5.06c-5.89,0.27-9.07-1.87-11.46-7.06
	c-10.44-22.74-21.19-45.33-31.74-68.02c-38.18-82.04-76.3-164.12-114.5-246.15c-24.57-52.76-49.29-105.44-73.84-158.21
	C187.7,251.74,149.77,169.9,111.71,88.12c-6.64-14.26-6.16-15.17,9.89-14.6c0.87,0.03,1.75,0.08,2.62,0.13
	c45.09,2.33,90.19,4.62,135.27,7.01c85.23,4.52,170.46,9.17,255.7,13.58C526.67,94.83,538.21,94.32,549.66,94.32z"/>
<path class="st0" d="M749.99,672.95c-1.72-0.29-0.85-1.65-1.05-2.56C750.02,670.94,750.55,671.72,749.99,672.95z"/>
<path class="st0" d="M744.96,701.37c0.09,0.83,0.13,1.63-1.09,1.55C743.53,701.91,744.56,701.86,744.96,701.37z"/>
<path class="st0" d="M475.79,896.98c-6.53-1.02-11.92-4.37-16.53-8.82c-12.38-11.96-23.37-25.21-30.66-40.82
	c-27.57-58.97-54.54-118.23-82.01-177.24c-22.2-47.69-43.92-95.6-66.3-143.21c-13.15-27.96-25.94-56.16-38.5-84.42
	c-0.47-1.06-1.22-2.03-1.5-3.14c-0.52-2.04-3.19-4.62-0.18-6.1c3.43-1.7,3.35,2.4,4.1,3.97c8.32,17.58,16.4,35.28,24.54,52.95
	c22.85,49.64,45.71,99.28,68.56,148.92c21.03,45.69,42.06,91.38,63.1,137.06c10.96,23.8,21.13,48.01,33.21,71.23
	c8.69,16.71,19.83,32.16,35.93,43.13c2.45,1.67,6.27,2.41,6.1,6.62C475.64,897.13,475.79,896.98,475.79,896.98z"/>
<path class="st0" d="M236.09,421.01c-5.07,0.32-5.7-3.21-6.98-6.01c-16.59-35.98-33.19-71.96-49.68-107.99
	c-0.96-2.09-3.84-5.21-0.41-6.72c3.71-1.63,3.42,3.05,4.28,4.88c16.77,35.97,33.34,72.04,49.91,108.11
	C234.29,415.64,235.03,418.15,236.09,421.01z"/>
<path class="st0" d="M174.78,288.05c-4.84,0.37-5.45-3.09-6.54-5.45c-16.6-35.98-33.07-72.01-49.57-108.04
	c-0.71-1.56-1.57-3.06-2.16-4.66c-0.47-1.28,0.31-2.27,1.4-2.83c1.41-0.72,2.03,0.18,2.52,1.39c0.55,1.34,1.25,2.61,1.86,3.93
	c16.62,36.05,33.24,72.09,49.81,108.15C173.17,282.87,173.83,285.37,174.78,288.05z"/>
<path class="st0" d="M114.29,156.19c-9.35-5.46-45.28-86.88-42.88-97.16C84.14,92.56,100.59,122.88,114.29,156.19z"/>
<path class="st0" d="M112.88,78.59c25.25,1.24,49.09,2.35,72.92,3.6c107.37,5.62,214.74,11.27,322.11,16.91
	c10.47,0.55,20.95,1.58,31.42,1.47c6.7-0.07,10.31,2.3,13.43,8.23c25.31,48.2,50.96,96.22,76.52,144.29
	c77.09,144.98,154.19,289.95,231.27,434.93c16.54,31.11,32.91,62.3,49.6,93.32c3.05,5.68,3.1,7.52-4.27,7.81
	c-110.93,4.41-221.84,9.06-332.76,13.69c-37.27,1.56-74.54,3-111.78,5.03c-6.92,0.38-10.2-1.45-13.14-7.77
	c-57.03-123.03-114.32-245.94-171.55-368.89C223.48,316.99,170.32,202.75,117.16,88.5C115.83,85.64,114.66,82.71,112.88,78.59z"/>
<path class="st0" d="M549.66,94.32c-11.45,0-22.99,0.51-34.47-0.08c-85.24-4.41-170.46-9.06-255.7-13.58
	c-45.09-2.39-90.18-4.68-135.27-7.01c-0.87-0.05-1.75-0.1-2.62-0.13c-16.05-0.56-16.53,0.35-9.89,14.6
	c38.06,81.78,75.99,163.62,114.04,245.41c24.55,52.77,49.27,105.45,73.84,158.21c38.2,82.04,76.32,164.11,114.5,246.15
	c10.56,22.68,21.3,45.28,31.74,68.02c2.38,5.19,5.57,7.33,11.46,7.06c39.87-1.85,79.75-3.45,119.63-5.06
	c75.39-3.04,150.79-5.98,226.18-9.06c36.1-1.47,72.29-2.07,108.21-5.47c10.26-0.97,12.02,3.12,15.26,9.31
	c4.57,8.76,9.36,17.42,13.89,26.21c7.99,15.53,3.35,31.63-11.41,40.77c-2.23,1.38-4.41,1.13-6.68,1.24
	c-89.62,4.52-179.23,9.08-268.85,13.52c-39.57,1.96-79.14,4.02-118.74,5.44c-35.19,1.26-60.77-15.59-75.37-46.47
	c-54.91-116.16-108.83-232.77-163.14-349.22C232.73,357.97,169.2,221.76,105.68,85.55c-5.53-11.85-11.11-23.69-16.53-35.59
	c-8.75-19.19-0.26-27.62,18.81-29.08c21.53-1.66,43.08,1.25,64.6,2.29c38.11,1.84,76.19,4.31,114.28,6.52
	c56.12,3.26,112.24,6.54,168.36,9.79c4.65,0.27,9.35,0.89,13.96,0.57c23.36-1.63,41.24,9.41,57.96,23.95
	C537.14,72.73,545.83,82.11,549.66,94.32z M359.01,65.42c-5.8,2.18-12.3-0.53-17.96,2.61c-12.8-3.83-25.82-3.78-39.04-3.07
	c-6.5,0.35-13.12-1.4-19.67-2.35c-2.59-0.37-4.09-2.12-4.15-4.78c-0.06-3.14,2.09-3.72,4.66-3.79c1.73-0.05,3.45-0.26,5.18-0.4
	c3.96-0.25,7.93-0.5,11.89-0.76c0.01-0.64,0.03-1.29,0.04-1.93c-5.61,0-11.22,0-16.83,0c-0.52-0.32-1-0.27-1.45,0.14
	c-1.05,0.45-2.1,0.9-3.15,1.35c-3.86,1.31-4.85,4.19-3.27,7.52c1.65,3.47,4.32,6.08,8.68,6.26c7.23,0.29,14.45,0.95,21.68,1.12
	c11.81,0.28,23.62,0.29,35.44,0.41c6.56,1.37,13.26,4.54,19.25-1.48c3.67-2.93,3.72-5.75-0.25-8.46c-1.05-2.99-3.71-3.54-6.27-3.67
	c-14.4-0.72-28.81-1.32-43.23-1.83c-1.73-0.06-4.17-0.73-4.75,2.49c8.43,1.23,16.85,0.14,25.13,0.71
	c9.79,0.68,20.11-0.36,29.14,5.12C359.72,62.24,359.36,63.83,359.01,65.42z M446.94,68.74c-2.72-3.71-2.39-7.59,1.38-13.01
	c-10.43,5.37-6.63,9.76-2.51,14.16c7.9,7.24,13.47,6.02,16.29-4.75C457.98,72.23,452.86,73,446.94,68.74z M410.75,67.32
	c-1.12,0.13-1.87,0.17-2.6,0.3c-7.48,1.31-15.06,1.16-22.48,0.12c-3.27-0.46-6.63-3-6.04-7.31c0.58-4.22,4.24-3.21,6.94-3.16
	c8.12,0.15,16.64-2.01,23.78,4.38c-5.04-6.5-23.97-10.45-29.98-6.64c-4.27,2.71-3.93,7-1.79,10.61
	C382.88,72.84,403.96,73.99,410.75,67.32z"/>
</svg>
