<?xml version="1.0" encoding="utf-8"?>
<!-- Generator: Adobe Illustrator 24.1.2, SVG Export Plug-In . SVG Version: 6.00 Build 0)  -->
<svg version="1.1" id="Capa_1" xmlns="http://www.w3.org/2000/svg" xmlns:xlink="http://www.w3.org/1999/xlink" x="0px" y="0px"
	 viewBox="0 0 1920 1080" style="enable-background:new 0 0 1920 1080;" xml:space="preserve">
<style type="text/css">
	.st0{fill:#C2BEF9;}
	.st1{fill:#C8CBFF;}
	.st2{fill:#FFFFFF;}
	.st3{fill:#D4D4FC;}
	.st4{fill:none;stroke:#6E54EB;stroke-width:14;stroke-linecap:round;stroke-linejoin:round;stroke-miterlimit:10;}
</style>
<rect x="832.6" y="650.57" transform="matrix(0.7233 0.6905 -0.6905 0.7233 790.0271 -403.7813)" class="st0" width="132.57" height="266.79"/>
<circle class="st1" cx="601.21" cy="608.63" r="118.48"/>
<rect x="632.7" y="570.48" transform="matrix(0.7233 0.6905 -0.6905 0.7233 711.5076 -368.006)" class="st2" width="364.56" height="266.79"/>
<rect x="1080.08" y="272.56" transform="matrix(0.7233 0.6905 -0.6905 0.7233 607.7509 -633.6366)" class="st0" width="29" height="338.04"/>
<rect x="881.43" y="677.59" transform="matrix(0.7233 0.6905 -0.6905 0.7233 811.3677 -410.4568)" class="st3" width="72.91" height="259.33"/>
<rect x="766.58" y="549.55" transform="matrix(0.7233 0.6905 -0.6905 0.7233 651.7117 -499.2458)" class="st3" width="364.56" height="28.17"/>
<path class="st4" d="M1026.63,730.13c-44.64-42.61-255.68-244.07-255.68-244.07l56.6-59.3l263.91,251.93c0,0-8.69,9.1-19.26,20.17"
	/>
<path class="st4" d="M719.95,539.45c30.94-32.42,55.24-57.87,55.24-57.87l263.91,251.93L854.93,926.43L591.02,674.5
	c0,0,15.4-16.14,37.3-39.08"/>
<path class="st4" d="M653.9,608.64c2.8-2.94,5.65-5.92,8.52-8.93"/>
<path class="st4" d="M1076.72,379.74c33.32-34.9,59.26-62.08,59.26-62.08l50.94,48.63l-202.5,212.13l-50.94-48.63
	c0,0,12.7-13.3,31.74-33.25"/>
<path class="st4" d="M998.3,461.89c3.72-3.9,7.52-7.88,11.36-11.9"/>
<path class="st4" d="M1197.82,306.47c12.29,11.73,24.18,23.08,24.18,23.08l-39.86,41.76l-50.94-48.63l39.86-41.76
	c0,0,6.12,5.84,14.12,13.48"/>
<path class="st4" d="M798.86,514.38c0,0-11.47,12.01-25.29,26.49"/>
<path class="st4" d="M745.16,570.63c-10.82,11.34-18.96,19.86-18.96,19.86"/>
<path class="st4" d="M1008.62,714.61c0,0-8.1,8.49-18.9,19.8"/>
<path class="st4" d="M960.6,764.92c-13.53,14.17-24.64,25.81-24.64,25.81"/>
<path class="st4" d="M850.4,563.58c0,0-31.82,33.34-59.38,62.2"/>
<path class="st4" d="M777.53,639.92c-14.88,15.59-26.1,27.34-26.1,27.34"/>
<path class="st4" d="M901.94,612.78c0,0-15.14,15.86-34.52,36.16"/>
<path class="st4" d="M837.59,680.19c-6.61,6.92-13.12,13.74-19.18,20.09"/>
<path class="st4" d="M797.11,722.6c-7.32,7.66-11.88,12.44-11.88,12.44"/>
<line class="st4" x1="955.28" y1="663.7" x2="856.31" y2="767.38"/>
<circle class="st1" cx="970.48" cy="233.2" r="33.56"/>
<circle class="st1" cx="1183.92" cy="642.56" r="55.51"/>
<circle class="st4" cx="865.41" cy="301.28" r="21.13"/>
<circle class="st4" cx="1259.62" cy="495.47" r="43.5"/>
<circle class="st4" cx="1046.69" cy="814.53" r="31.9"/>
<circle class="st4" cx="1193.66" cy="708.56" r="18.64"/>
</svg>
