<?xml version="1.0" encoding="utf-8"?>
<!-- Generator: Adobe Illustrator 24.1.2, SVG Export Plug-In . SVG Version: 6.00 Build 0)  -->
<svg version="1.1" xmlns="http://www.w3.org/2000/svg" xmlns:xlink="http://www.w3.org/1999/xlink" x="0px" y="0px"
	 viewBox="0 0 1920 1080" style="enable-background:new 0 0 1920 1080;" xml:space="preserve">
<style type="text/css">
	.st0{display:none;}
	.st1{display:inline;fill:#C2BEF9;}
	.st2{display:inline;fill:none;stroke:#5839F6;stroke-width:20;stroke-linecap:round;stroke-linejoin:round;stroke-miterlimit:10;}
	.st3{display:inline;fill:none;stroke:#5839F6;stroke-width:10;stroke-linecap:round;stroke-linejoin:round;stroke-miterlimit:10;}
	.st4{display:inline;fill:none;stroke:#5839F6;stroke-width:10;stroke-miterlimit:10;}
	.st5{display:inline;fill:none;stroke:#5839F6;stroke-width:3;stroke-linecap:round;stroke-linejoin:round;stroke-miterlimit:10;}
	.st6{display:inline;fill:none;stroke:#5839F6;stroke-width:7;stroke-linecap:round;stroke-linejoin:round;stroke-miterlimit:10;}
	.st7{display:inline;fill:none;stroke:#5839F6;stroke-width:6;stroke-linecap:round;stroke-linejoin:round;stroke-miterlimit:10;}
	.st8{display:inline;fill:none;stroke:#5839F6;stroke-width:4;stroke-linecap:round;stroke-linejoin:round;stroke-miterlimit:10;}
	.st9{fill:none;stroke:#5839F6;stroke-width:20;stroke-linecap:round;stroke-linejoin:round;stroke-miterlimit:10;}
	.st10{fill:#C2BEF9;}
	.st11{fill:none;stroke:#5839F6;stroke-width:10;stroke-miterlimit:10;}
</style>
<g id="Capa_1" class="st0">
	<circle class="st1" cx="613.89" cy="361.32" r="108.6"/>
	<path class="st2" d="M639.5,422.26c-16.38-28.37-32.77-56.75-49.18-85.16c42.38,0,83.44,0,124.5,0
		c23.34,40.42,46.68,80.85,70.01,121.27c37.58,65.09,75.2,130.17,112.67,195.32c2.88,5.01,4.28,5.71,7.48,0.14
		c20.84-36.39,41.99-72.6,62.95-108.91c29.28-50.7,58.57-101.39,87.68-152.19c10.6-18.5,22.19-36.45,31.51-55.68
		c41.18,0,82.36,0,125.18,0c-6.74,11.68-13.48,23.35-20.22,35.03"/>
	<path class="st2" d="M1160.34,427.04c-21.58,37.37-43.14,74.71-64.71,112.06"/>
	<path class="st2" d="M1035.84,642.65c-3.18,5.5-6.36,11.01-9.53,16.51"/>
	<path class="st2" d="M985.37,730.06c-27.98,48.46-56,96.98-84.07,145.59c-24.84-43.01-49.63-85.95-74.39-128.84"/>
	<path class="st3" d="M815.21,726.56c-7.64-13.24-15.29-26.47-22.93-39.7"/>
	<path class="st2" d="M747.07,608.55c-17.14-29.69-34.28-59.37-51.42-89.05"/>
	<path class="st2" d="M677.84,488.67c-2.13-3.69-4.26-7.38-6.39-11.07"/>
	<path class="st2" d="M785.01,458.67c-0.06-0.1-0.12-0.2-0.18-0.31c-23.34-40.42-46.68-80.85-70.01-121.27
		c36.92-0.11,73.84-0.12,110.76-0.44c4.6-0.04,5.74,2.91,7.39,5.76c5.35,9.26,10.7,18.53,16.05,27.8"/>
	<path class="st2" d="M876.24,417.38c6.89,11.94,13.78,23.89,20.67,35.83c1.26,2.18,2.63,4.3,4.35,7.1
		c1.88-3.02,3.45-5.39,4.86-7.84c8.74-15.13,17.48-30.25,26.22-45.38"/>
	<path class="st2" d="M949.35,377.63c4.56-7.9,9.12-15.8,13.67-23.7"/>
	<path class="st2" d="M969.01,343.55c0.23-0.39,0.45-0.78,0.68-1.17c1.71-2.97,2.98-5.74,7.46-5.7c17.63,0.13,35.26,0.2,52.88,0.24"
		/>
	<path class="st3" d="M1071.26,337c5.29,0.01,10.58,0.02,15.87,0.03c-9.32,19.23-20.91,37.18-31.51,55.68
		c-22.08,38.52-44.26,76.99-66.46,115.44"/>
	<path class="st4" d="M958.67,560.93c-17.92,30.95-35.91,61.85-53.69,92.89c-3.19,5.58-4.59,4.88-7.48-0.14
		c-21.99-38.24-44.04-76.45-66.09-114.65"/>
	<path class="st3" d="M814.01,508.89c-3.08-5.34-6.16-10.67-9.24-16.01"/>
	<circle class="st1" cx="1036.63" cy="242.08" r="42.35"/>
	<circle class="st1" cx="1179.47" cy="468.19" r="62.23"/>
	<circle class="st1" cx="1102.99" cy="575.06" r="35.96"/>
	<circle class="st1" cx="763.37" cy="713.5" r="67.72"/>
	<path class="st5" d="M698.03,212.68c-1.53-3.26-2.38-6.9-2.38-10.74c0-13.98,11.33-25.31,25.31-25.31s25.31,11.33,25.31,25.31
		c0,6.61-2.54,12.63-6.69,17.14"/>
	<path class="st5" d="M732.27,224.59c-3.4,1.7-7.25,2.66-11.31,2.66c-1.34,0-2.65-0.1-3.94-0.3"/>
	<circle class="st6" cx="1255.18" cy="575.06" r="25.31"/>
	<path class="st7" d="M798.16,257.97c3.62,0.86,6.94,2.5,9.78,4.73"/>
	<path class="st7" d="M817.53,280.77c0.04,0.6,0.06,1.21,0.06,1.83c0,4.16-1,8.08-2.78,11.54"/>
	<path class="st7" d="M793.31,307.89c-0.34,0.01-0.68,0.02-1.03,0.02c-13.98,0-25.31-11.33-25.31-25.31
		c0-11.07,7.1-20.47,16.99-23.91"/>
	<circle class="st8" cx="792.28" cy="683.04" r="25.31"/>
	<circle class="st5" cx="1117.25" cy="282.6" r="25.31"/>
	<circle class="st7" cx="1142.56" cy="625.5" r="23.51"/>
</g>
<g id="Capa_2">
	<path class="st9" d="M967.13,524.78c5.8-5.79,11.59-11.58,17.39-17.37"/>
	<path class="st9" d="M1000.66,491.28c10.35-10.36,20.69-20.73,31-31.12c3.58-3.61,5.63-4.1,9.48-0.24
		c12.59,12.62,25.21,25.22,37.84,37.8"/>
	<path class="st9" d="M1130.04,548.44c6.78,6.72,13.57,13.43,20.35,20.14c3.11,3.07,2.81,4.89,0.05,7.89
		c-11.43,12.42-23.43,24.26-35.72,35.82c-3.66,3.44-5.45,2.35-8.4-0.63c-9.87-9.99-20.02-19.69-30.27-29.71
		c-1.99,2.78-1.07,5.86-1.08,8.69c-0.09,30.66-0.16,61.33-0.23,91.99"/>
	<path class="st9" d="M1074.66,727.33c-0.03,13.23-0.06,26.47-0.09,39.7"/>
	<path class="st9" d="M1069.1,828.29c-9.7,32.2-33.29,50.18-66.39,55.98c-39.87,6.99-80.16,7.75-120.08,2.45"/>
	<path class="st9" d="M833.24,873.59c-12.62-6.49-22.81-15.37-30.53-26.47"/>
	<path class="st9" d="M785.06,791.69c-0.16-2.33-0.27-4.7-0.33-7.11c-0.57-22.68-0.57-22.68,21.51-22.68
		c20.39,0,40.79,0.14,61.18-0.1c4.86-0.06,6.51,1.13,6.2,6.25c-0.6,9.78-0.8,19.58,1.2,29.33c3.62,17.61,12.33,27.07,30.06,28.82
		c20.3,2,40.84,1.65,61.01-1.47c20.54-3.18,29.83-15.8,31.39-39.85c0.46-7.03,0.56-14.09,0.57-21.14
		c0.05-58.67,0.04-117.33,0.03-176c0-1.95-0.17-3.91-0.26-5.86c-10.41,9.99-20.55,19.37-30.24,29.2c-3.44,3.49-5.6,4.65-9.55,0.68
		c-11.89-11.95-24.04-23.66-36.29-35.24c-2.84-2.68-1.35-4.05,0.49-5.95c5.96-6.15,11.76-12.44,17.81-18.5
		c1.65-1.65,3.3-3.3,4.95-4.95"/>
	<path class="st9" d="M822.37,337.2c9.6-7.69,21.42-13.05,35.42-15.87c8.14-1.64,16.29-3.03,24.45-4.14"/>
	<path class="st9" d="M941.19,313.95c23.69,0.72,47.32,3.94,70.78,9.98c13.54,3.49,25.07,8.98,34.57,16.31"/>
	<path class="st9" d="M1079.28,404.86c1.03,10.4,1.12,20.77,1.1,31.18c-0.01,4.63-1.2,6.71-6.39,6.66
		c-25.68-0.24-51.37-0.25-77.05,0.01c-5.23,0.05-5.77-2.03-5.17-6.32c1.71-12.13,0.98-24.13-3.08-35.75
		c-4.8-13.75-14.62-21.11-29.1-22.62c-18.14-1.88-36.29-0.84-54.31,0.59c-22.4,1.77-35.19,15.56-37.53,38.43"/>
	<path class="st9" d="M866.54,449.23c-0.07,8.26-0.02,16.52,0.06,24.79"/>
	<path class="st9" d="M866.84,498.86c0.28,41.13,0.01,82.25,0.01,123.33c3.02,0.77,3.86-1.57,5.15-2.81
		c7.25-7,14.42-14.07,21.51-21.22c9.71-9.8,9.68-9.86,19.79,0.09c9.87,9.71,19.55,19.63,29.65,29.1c3.37,3.16,2.68,4.79-0.16,7.63
		c-5.3,5.3-10.59,10.61-15.88,15.92"/>
	<path class="st9" d="M908.32,669.55c-25.3,25.41-50.56,50.85-75.79,76.33c-2.75,2.78-4.39,2.87-7.19,0.07
		c-10.69-10.68-21.39-21.36-32.09-32.03"/>
	<path class="st9" d="M757.17,678.01c-14.39-14.31-28.8-28.6-43.21-42.88c-2.64-2.61-2.43-4.29,0.02-6.75
		c12.26-12.31,24.49-24.65,36.54-37.17c2.54-2.64,4.09-1.71,6.12,0.24c7.26,6.98,14.64,13.82,21.82,20.88
		c3.55,3.49,6.74,7.34,10.1,11.02c0.6-0.38,1.21-0.75,1.81-1.13c0-15.07,0-30.13,0-45.2c0-2.04,0-4.09,0-6.13"/>
	<path class="st9" d="M790.36,538.62c0-36.81,0.01-73.61-0.02-110.41c-0.01-14.39,1.17-28.61,4.2-42.72
		c0.4-1.86,0.84-3.68,1.31-5.46"/>
	<circle class="st10" cx="733.13" cy="412.04" r="84.85"/>
	<circle class="st10" cx="969.54" cy="231.8" r="28.35"/>
	<circle class="st10" cx="908.32" cy="747.18" r="46.1"/>
	<circle class="st10" cx="1157.93" cy="484.69" r="55.31"/>
	<circle class="st10" cx="1079.58" cy="346.99" r="33.03"/>
	<circle class="st10" cx="925.66" cy="195.48" r="7.97"/>
	<circle class="st10" cx="1138.04" cy="767.03" r="42.5"/>
	<circle class="st11" cx="636.86" cy="354.02" r="21.21"/>
	<circle class="st11" cx="665.42" cy="433.11" r="31.89"/>
	<circle class="st11" cx="1013.69" cy="215.86" r="29.18"/>
	<circle class="st11" cx="1185.65" cy="665.74" r="27.59"/>
	<circle class="st11" cx="933.63" cy="475" r="25.99"/>
</g>
</svg>
