<?xml version="1.0" encoding="utf-8"?>
<!-- Generator: Adobe Illustrator 24.1.2, SVG Export Plug-In . SVG Version: 6.00 Build 0)  -->
<svg version="1.1" xmlns="http://www.w3.org/2000/svg" xmlns:xlink="http://www.w3.org/1999/xlink" x="0px" y="0px"
	 viewBox="0 0 1920 1080" style="enable-background:new 0 0 1920 1080;" xml:space="preserve">
<style type="text/css">
	.st0{display:none;}
	.st1{display:inline;fill:#C2BEF9;}
	.st2{display:inline;fill:none;stroke:#5839F6;stroke-width:20;stroke-linecap:round;stroke-linejoin:round;stroke-miterlimit:10;}
	.st3{display:inline;fill:none;stroke:#5839F6;stroke-width:10;stroke-linecap:round;stroke-linejoin:round;stroke-miterlimit:10;}
	.st4{display:inline;fill:none;stroke:#5839F6;stroke-width:10;stroke-miterlimit:10;}
	.st5{display:inline;fill:none;stroke:#5839F6;stroke-width:3;stroke-linecap:round;stroke-linejoin:round;stroke-miterlimit:10;}
	.st6{display:inline;fill:none;stroke:#5839F6;stroke-width:7;stroke-linecap:round;stroke-linejoin:round;stroke-miterlimit:10;}
	.st7{display:inline;fill:none;stroke:#5839F6;stroke-width:6;stroke-linecap:round;stroke-linejoin:round;stroke-miterlimit:10;}
	.st8{display:inline;fill:none;stroke:#5839F6;stroke-width:4;stroke-linecap:round;stroke-linejoin:round;stroke-miterlimit:10;}
	.st9{display:inline;fill:none;stroke:#5839F6;stroke-width:18;stroke-linecap:round;stroke-linejoin:round;stroke-miterlimit:10;}
	.st10{display:inline;fill:#5839F6;}
	.st11{fill:none;stroke:#5839F6;stroke-width:20;stroke-linecap:round;stroke-linejoin:round;stroke-miterlimit:10;}
	.st12{fill:#C2BEF9;}
	.st13{fill:none;stroke:#5839F6;stroke-width:10;stroke-linecap:round;stroke-linejoin:round;stroke-miterlimit:10;}
</style>
<g id="Capa_1" class="st0">
	<circle class="st1" cx="613.89" cy="361.32" r="108.6"/>
	<path class="st2" d="M639.5,422.26c-16.38-28.37-32.77-56.75-49.18-85.16c42.38,0,83.44,0,124.5,0
		c23.34,40.42,46.68,80.85,70.01,121.27c37.58,65.09,75.2,130.17,112.67,195.32c2.88,5.01,4.28,5.71,7.48,0.14
		c20.84-36.39,41.99-72.6,62.95-108.91c29.28-50.7,58.57-101.39,87.68-152.19c10.6-18.5,22.19-36.45,31.51-55.68
		c41.18,0,82.36,0,125.18,0c-6.74,11.68-13.48,23.35-20.22,35.03"/>
	<path class="st2" d="M1160.34,427.04c-21.58,37.37-43.14,74.71-64.71,112.06"/>
	<path class="st2" d="M1035.84,642.65c-3.18,5.5-6.36,11.01-9.53,16.51"/>
	<path class="st2" d="M985.37,730.06c-27.98,48.46-56,96.98-84.07,145.59c-24.84-43.01-49.63-85.95-74.39-128.84"/>
	<path class="st3" d="M815.21,726.56c-7.64-13.24-15.29-26.47-22.93-39.7"/>
	<path class="st2" d="M747.07,608.55c-17.14-29.69-34.28-59.37-51.42-89.05"/>
	<path class="st2" d="M677.84,488.67c-2.13-3.69-4.26-7.38-6.39-11.07"/>
	<path class="st2" d="M785.01,458.67c-0.06-0.1-0.12-0.2-0.18-0.31c-23.34-40.42-46.68-80.85-70.01-121.27
		c36.92-0.11,73.84-0.12,110.76-0.44c4.6-0.04,5.74,2.91,7.39,5.76c5.35,9.26,10.7,18.53,16.05,27.8"/>
	<path class="st2" d="M876.24,417.38c6.89,11.94,13.78,23.89,20.67,35.83c1.26,2.18,2.63,4.3,4.35,7.1
		c1.88-3.02,3.45-5.39,4.86-7.84c8.74-15.13,17.48-30.25,26.22-45.38"/>
	<path class="st2" d="M949.35,377.63c4.56-7.9,9.12-15.8,13.67-23.7"/>
	<path class="st2" d="M969.01,343.55c0.23-0.39,0.45-0.78,0.68-1.17c1.71-2.97,2.98-5.74,7.46-5.7c17.63,0.13,35.26,0.2,52.88,0.24"
		/>
	<path class="st3" d="M1071.26,337c5.29,0.01,10.58,0.02,15.87,0.03c-9.32,19.23-20.91,37.18-31.51,55.68
		c-22.08,38.52-44.26,76.99-66.46,115.44"/>
	<path class="st4" d="M958.67,560.93c-17.92,30.95-35.91,61.85-53.69,92.89c-3.19,5.58-4.59,4.88-7.48-0.14
		c-21.99-38.24-44.04-76.45-66.09-114.65"/>
	<path class="st3" d="M814.01,508.89c-3.08-5.34-6.16-10.67-9.24-16.01"/>
	<circle class="st1" cx="1036.63" cy="242.08" r="42.35"/>
	<circle class="st1" cx="1179.47" cy="468.19" r="62.23"/>
	<circle class="st1" cx="1102.99" cy="575.06" r="35.96"/>
	<circle class="st1" cx="763.37" cy="713.5" r="67.72"/>
	<path class="st5" d="M698.03,212.68c-1.53-3.26-2.38-6.9-2.38-10.74c0-13.98,11.33-25.31,25.31-25.31s25.31,11.33,25.31,25.31
		c0,6.61-2.54,12.63-6.69,17.14"/>
	<path class="st5" d="M732.27,224.59c-3.4,1.7-7.25,2.66-11.31,2.66c-1.34,0-2.65-0.1-3.94-0.3"/>
	<circle class="st6" cx="1255.18" cy="575.06" r="25.31"/>
	<path class="st7" d="M798.16,257.97c3.62,0.86,6.94,2.5,9.78,4.73"/>
	<path class="st7" d="M817.53,280.77c0.04,0.6,0.06,1.21,0.06,1.83c0,4.16-1,8.08-2.78,11.54"/>
	<path class="st7" d="M793.31,307.89c-0.34,0.01-0.68,0.02-1.03,0.02c-13.98,0-25.31-11.33-25.31-25.31
		c0-11.07,7.1-20.47,16.99-23.91"/>
	<circle class="st8" cx="792.28" cy="683.04" r="25.31"/>
	<circle class="st5" cx="1117.25" cy="282.6" r="25.31"/>
	<circle class="st7" cx="1142.56" cy="625.5" r="23.51"/>
</g>
<g id="Capa_2" class="st0">
	<path class="st2" d="M967.13,524.78c5.8-5.79,11.59-11.58,17.39-17.37"/>
	<path class="st2" d="M1000.66,491.28c10.35-10.36,20.69-20.73,31-31.12c3.58-3.61,5.63-4.1,9.48-0.24
		c12.59,12.62,25.21,25.22,37.84,37.8"/>
	<path class="st2" d="M1130.04,548.44c6.78,6.72,13.57,13.43,20.35,20.14c3.11,3.07,2.81,4.89,0.05,7.89
		c-11.43,12.42-23.43,24.26-35.72,35.82c-3.66,3.44-5.45,2.35-8.4-0.63c-9.87-9.99-20.02-19.69-30.27-29.71
		c-1.99,2.78-1.07,5.86-1.08,8.69c-0.09,30.66-0.16,61.33-0.23,91.99"/>
	<path class="st2" d="M1074.66,727.33c-0.03,13.23-0.06,26.47-0.09,39.7"/>
	<path class="st2" d="M1069.1,828.29c-9.7,32.2-33.29,50.18-66.39,55.98c-39.87,6.99-80.16,7.75-120.08,2.45"/>
	<path class="st2" d="M833.24,873.59c-12.62-6.49-22.81-15.37-30.53-26.47"/>
	<path class="st2" d="M785.06,791.69c-0.16-2.33-0.27-4.7-0.33-7.11c-0.57-22.68-0.57-22.68,21.51-22.68
		c20.39,0,40.79,0.14,61.18-0.1c4.86-0.06,6.51,1.13,6.2,6.25c-0.6,9.78-0.8,19.58,1.2,29.33c3.62,17.61,12.33,27.07,30.06,28.82
		c20.3,2,40.84,1.65,61.01-1.47c20.54-3.18,29.83-15.8,31.39-39.85c0.46-7.03,0.56-14.09,0.57-21.14
		c0.05-58.67,0.04-117.33,0.03-176c0-1.95-0.17-3.91-0.26-5.86c-10.41,9.99-20.55,19.37-30.24,29.2c-3.44,3.49-5.6,4.65-9.55,0.68
		c-11.89-11.95-24.04-23.66-36.29-35.24c-2.84-2.68-1.35-4.05,0.49-5.95c5.96-6.15,11.76-12.44,17.81-18.5
		c1.65-1.65,3.3-3.3,4.95-4.95"/>
	<path class="st2" d="M822.37,337.2c9.6-7.69,21.42-13.05,35.42-15.87c8.14-1.64,16.29-3.03,24.45-4.14"/>
	<path class="st2" d="M941.19,313.95c23.69,0.72,47.32,3.94,70.78,9.98c13.54,3.49,25.07,8.98,34.57,16.31"/>
	<path class="st2" d="M1079.28,404.86c1.03,10.4,1.12,20.77,1.1,31.18c-0.01,4.63-1.2,6.71-6.39,6.66
		c-25.68-0.24-51.37-0.25-77.05,0.01c-5.23,0.05-5.77-2.03-5.17-6.32c1.71-12.13,0.98-24.13-3.08-35.75
		c-4.8-13.75-14.62-21.11-29.1-22.62c-18.14-1.88-36.29-0.84-54.31,0.59c-22.4,1.77-35.19,15.56-37.53,38.43"/>
	<path class="st2" d="M866.54,449.23c-0.07,8.26-0.02,16.52,0.06,24.79"/>
	<path class="st2" d="M866.84,498.86c0.28,41.13,0.01,82.25,0.01,123.33c3.02,0.77,3.86-1.57,5.15-2.81
		c7.25-7,14.42-14.07,21.51-21.22c9.71-9.8,9.68-9.86,19.79,0.09c9.87,9.71,19.55,19.63,29.65,29.1c3.37,3.16,2.68,4.79-0.16,7.63
		c-5.3,5.3-10.59,10.61-15.88,15.92"/>
	<path class="st2" d="M908.32,669.55c-25.3,25.41-50.56,50.85-75.79,76.33c-2.75,2.78-4.39,2.87-7.19,0.07
		c-10.69-10.68-21.39-21.36-32.09-32.03"/>
	<path class="st2" d="M757.17,678.01c-14.39-14.31-28.8-28.6-43.21-42.88c-2.64-2.61-2.43-4.29,0.02-6.75
		c12.26-12.31,24.49-24.65,36.54-37.17c2.54-2.64,4.09-1.71,6.12,0.24c7.26,6.98,14.64,13.82,21.82,20.88
		c3.55,3.49,6.74,7.34,10.1,11.02c0.6-0.38,1.21-0.75,1.81-1.13c0-15.07,0-30.13,0-45.2c0-2.04,0-4.09,0-6.13"/>
	<path class="st2" d="M790.36,538.62c0-36.81,0.01-73.61-0.02-110.41c-0.01-14.39,1.17-28.61,4.2-42.72
		c0.4-1.86,0.84-3.68,1.31-5.46"/>
	<circle class="st1" cx="733.13" cy="412.04" r="84.85"/>
	<circle class="st1" cx="969.54" cy="231.8" r="28.35"/>
	<circle class="st1" cx="908.32" cy="747.18" r="46.1"/>
	<circle class="st1" cx="1157.93" cy="484.69" r="55.31"/>
	<circle class="st1" cx="1079.58" cy="346.99" r="33.03"/>
	<circle class="st1" cx="925.66" cy="195.48" r="7.97"/>
	<circle class="st1" cx="1138.04" cy="767.03" r="42.5"/>
	<circle class="st4" cx="636.86" cy="354.02" r="21.21"/>
	<circle class="st4" cx="665.42" cy="433.11" r="31.89"/>
	<circle class="st4" cx="1013.69" cy="215.86" r="29.18"/>
	<circle class="st4" cx="1185.65" cy="665.74" r="27.59"/>
	<circle class="st4" cx="933.63" cy="475" r="25.99"/>
</g>
<g id="Capa_3" class="st0">
	<path class="st2" d="M787.32,317.6c12.41,0.02,24.82,0.04,37.24,0.05 M881.65,317.65c25.75-0.01,51.5-0.03,77.26-0.03
		c45.42,0,90.85,0.08,136.27,0.05 M1159.73,317.52c10.94-0.04,21.88-0.1,32.82-0.17c11.07-0.07,13.51,3.3,12.52,13.64
		c-2.65,27.84-5.23,55.68-7.77,83.53 M1188.13,516.59c-0.36,4.03-0.72,8.06-1.08,12.09c-0.29,3.29-0.59,6.58-0.88,9.86
		 M1178.09,630.13c-2.66,30.32-5.3,60.64-7.95,90.96c-2.84,32.52-5.69,65.03-8.28,97.57c-0.46,5.8-2.71,8.4-8.47,10
		c-31.06,8.62-62.1,17.33-93.14,26.06 M1003.17,870.8c-12.26,3.46-24.53,6.91-36.79,10.37c-5.35,1.51-10.49,0.8-15.81-0.69
		c-11.68-3.29-23.36-6.58-35.04-9.86 M886.33,862.41c-5.59-1.57-11.17-3.13-16.76-4.7 M810.17,841.16
		c-13.85-3.84-27.7-7.65-41.56-11.45c-8.21-2.25-11.41-6.01-12.11-14.5c-6.27-76.19-12.83-152.37-19.57-228.52
		c-7.57-85.51-15.24-171.01-23.36-256.48c-0.97-10.23,1.33-12.89,11.7-12.83c11.58,0.06,23.16,0.11,34.74,0.15 M829.52,421.82
		c-4.59-0.03-9.19-0.06-13.78-0.1c-9.19-0.08-13.01,1.86-11.58,11.84c1.57,11.04,2.8,22.35,2.2,33.43
		c-0.67,12.43,4.43,14.4,15.61,14.3c34.8-0.32,69.6-0.43,104.4-0.51 M985.95,480.63c6.62-0.02,13.23-0.04,19.85-0.07
		 M1025.65,480.46c3.3-0.02,6.6-0.04,9.9-0.06c9.06-0.06,13.02,1.63,11.55,11.77c-1.72,11.92-3.04,24.14-2.4,36.11
		c0.74,13.67-5.11,15.5-17.17,15.53c-67.61,0.19-135.21,1.43-202.81,2c-8.15,0.07-12.4,0.68-10.18,10.9
		c2.36,10.85,3.32,22.21,3.22,33.34c-0.1,11.97,3.86,15.72,16.29,15.56c64.47-0.82,128.96-0.6,193.44-0.74
		c5.7-0.01,11.67-1.62,10.29,8.46c-3.15,23.02-5.44,46.17-7.62,69.32c-0.6,6.38-3.29,9.21-9.31,11.07
		c-57.24,17.62-57.21,17.71-115.28,1.9c-1.73-0.47-3.4-1.36-5.14-1.51c-7.49-0.62-10.81-4.37-11.18-12.06
		c-0.55-11.15-2.33-22.24-3.08-33.38c-0.43-6.5-2.56-9.34-9.69-9.08c-14.76,0.54-29.56,0.49-44.32,0.02
		c-7.12-0.22-9.52,2.06-8.81,9.17c2.83,28.49,5.33,57.01,7.93,85.52c0.39,4.25,1.7,6.69,6.65,7.99
		c37.34,9.79,74.58,19.96,111.77,30.32c6.28,1.75,12.11,2.1,18.39,0.33c10.61-3,21.22-6.01,31.84-9 M1045.28,751.28
		c10.42-2.85,20.85-5.64,31.3-8.37c8.66-2.26,11.47-6.53,12.13-14.64c3.62-44.14,7.5-88.25,11.34-132.37
		c4.66-53.48,8.75-107.02,14.52-160.38c1.36-12.57-1.97-13.93-12.71-13.82c-33.68,0.33-67.37,0.29-101.05,0.24 M908.97,421.96
		c-9.1,0.01-18.21,0.02-27.31,0.01"/>
	<circle class="st1" cx="697.93" cy="330.07" r="74.48"/>
	<circle class="st1" cx="733.93" cy="544.83" r="53.38"/>
	<circle class="st1" cx="1170.9" cy="254.34" r="85.66"/>
	<circle class="st1" cx="1039.27" cy="199.68" r="18.58"/>
	<circle class="st1" cx="1191.81" cy="729.6" r="44.5"/>
	<circle class="st1" cx="1115.03" cy="628" r="29.79"/>
	<circle class="st1" cx="838.65" cy="850.97" r="76.88"/>
	<circle class="st3" cx="725.26" cy="227.01" r="27.33"/>
	<circle class="st3" cx="1175.22" cy="169.29" r="30.39"/>
	<circle class="st3" cx="854.11" cy="269.81" r="15.46"/>
	<circle class="st3" cx="1268.28" cy="584" r="44"/>
	<circle class="st3" cx="699.86" cy="520.69" r="19.31"/>
	<circle class="st3" cx="1021.22" cy="834.74" r="18.05"/>
</g>
<g id="Capa_4" class="st0">
	<path class="st9" d="M896.55,314.47c9.1,0,18.21,0,27.31,0 M946.21,314.47c4.26,0,8.51,0,12.77,0c21.4,0,42.8,0.02,64.2,0.03
		 M1110.07,314.51c27.98-0.03,55.97-0.12,83.95-0.29c11-0.07,13.57,3.04,12.57,13.58c-4.86,51.32-9.55,102.65-14.16,153.99
		 M1182.86,589.22c-1.05,11.96-2.1,23.92-3.14,35.88 M1173.64,695.38c-1.65,19.07-3.29,38.15-4.95,57.22
		c-1.9,21.96-3.91,43.91-5.54,65.89c-0.43,5.87-2.78,8.47-8.53,10.07c-20.49,5.69-40.97,11.41-61.45,17.15 M971.67,879.91
		c-1.73,0.49-3.46,0.97-5.19,1.46c-5.39,1.52-10.54,0.8-15.89-0.71c-60.97-17.17-121.93-34.36-183.03-51.06
		c-8.31-2.27-11.47-6.07-12.17-14.54c-2.95-35.63-5.96-71.25-9.02-106.87 M740.77,643.49c-0.57-6.57-1.15-13.14-1.73-19.71
		 M733.11,556.63c-5.96-66.69-12.08-133.37-18.08-200.05c-0.52-5.83-0.59-11.69-1.06-17.52c-1.96-24.58-1.99-24.58,23.46-24.58
		c24.9,0,49.8,0,74.7,0 M866.76,419.41c-17.48-0.02-34.96-0.07-52.43-0.19c-8.07-0.05-11.02,1.54-10.14,10.46
		c5.43,55.09,10.9,110.19,14.9,165.39c0.91,12.58,5.12,14.17,15.92,14.03c41.43-0.57,82.88-0.23,124.32-0.23
		c22.52,0,45.04-0.07,67.56,0.06c3.97,0.02,9.55-2.02,8.74,5.99c-0.75,7.44-1.48,14.89-2.18,22.34 M1031.58,657.66
		c-0.73,8.16-1.43,16.33-2.1,24.49c-0.52,6.3-3.31,9.01-9.48,10.89c-56.62,17.21-56.58,17.34-113.3,1.98
		c-2.17-0.59-4.28-1.69-6.47-1.86c-8.55-0.68-10.85-5.51-10.89-13.52c-0.05-9.87-1.73-19.72-2.19-29.6
		c-0.36-7.82-2.09-12.42-11.74-11.77c-13.9,0.94-27.92,0.53-41.87,0.12c-7.65-0.22-10.94,0.61-9.77,10.21
		c3.23,26.34,5.13,52.86,6.93,79.35c0.53,7.82,2.65,11.76,10.92,13.94c11.14,2.94,22.25,5.96,33.36,9.02 M908.44,760.29
		c14.08,3.99,28.15,8.03,42.22,12.06c5.88,1.68,11.32,1.87,17.17,0.21c4.54-1.29,9.07-2.58,13.61-3.86 M1014.56,759.31
		c6.65-1.87,13.31-3.74,19.96-5.6 M1063.41,745.72c4.91-1.34,9.82-2.68,14.74-4.01c6.84-1.85,8.97-4.74,9.58-11.85
		c4.79-56.5,9.92-112.98,15.57-169.4c1.12-11.13-1.31-14.44-13.08-14.34c-66.66,0.61-133.33,0.03-199.99,0.56
		c-10.73,0.09-13.97-3.11-14.05-13.47c-0.1-13.02-0.99-26.2-3.29-38.99c-1.89-10.53,0.88-12.74,11.23-12.67
		c33.94,0.22,67.88,0.24,101.82,0.25 M1033.1,481.83c21.51,0.02,43.01,0.07,64.52,0.18c8.88,0.05,13.01-1.89,13.38-11.32
		c0.53-13.48,1.64-26.98,3.38-40.35c1.2-9.24-2.2-11.21-10.87-11.14c-40.84,0.32-81.69,0.23-122.54,0.19 M938.76,419.39
		c-9.1,0.01-18.21,0.01-27.31,0.02"/>
	<circle class="st1" cx="719.03" cy="308.97" r="58.34"/>
	<circle class="st1" cx="665.02" cy="498.31" r="16.75"/>
	<circle class="st1" cx="794.76" cy="268" r="17.38"/>
	<circle class="st1" cx="1245.67" cy="537.85" r="87.25"/>
	<circle class="st1" cx="1225.58" cy="676.59" r="18.79"/>
	<circle class="st1" cx="1168.16" cy="215.86" r="34.76"/>
	<circle class="st1" cx="1242.15" cy="806.23" r="39.23"/>
	<circle class="st1" cx="1113.29" cy="902.33" r="20.12"/>
	<circle class="st1" cx="682.11" cy="739.43" r="17.08"/>
	<circle class="st3" cx="686.95" cy="254.54" r="26.26"/>
	<circle class="st3" cx="1228.12" cy="275.82" r="25.2"/>
	<circle class="st3" cx="1302.48" cy="388.41" r="21.1"/>
	<circle class="st3" cx="1150.78" cy="384.69" r="17.38"/>
	<circle class="st3" cx="1310.78" cy="737.6" r="29.4"/>
	<circle class="st3" cx="678.74" cy="654.1" r="40.46"/>
</g>
<g id="Capa_5" class="st0">
	<path class="st10" d="M849.19,555.78c-0.14,0.08-0.26,0.17-0.4,0.24c-2.86,1.45-6.28,1.86-9.41,1.13
		c-0.54,0.81-1.05,1.69-1.51,2.59c0,5.54,0,11.07,0.01,16.61c0.67,0.17,1.36,0.32,2.09,0.41c5.34,0.66,10.9-0.29,16.3-1.28
		c0-4.15,0-8.3,0-12.46C854.17,560.22,851.82,557.68,849.19,555.78z"/>
	<path class="st10" d="M1116.09,822.33c-1.5-6.14-6.12-10.19-12.04-12.63c-1.08-0.08-2.24-0.05-3.48,0.11
		c-0.41,0.05-0.78,0.06-1.15,0.04c-3.11,1.78-6.21,3.56-9.32,5.35c0.14,1.17-0.13,2.44-0.96,3.73c-3.49,5.41-0.04,8.02,4.94,10.75
		c1.66,0.91,3.4,1.69,5.16,2.39c5.62-3.23,11.24-6.44,16.86-9.66C1116.1,822.38,1116.1,822.35,1116.09,822.33z"/>
	<path class="st10" d="M1326.18,433.54c0.09-9.01-3.31-14.07-10.92-18.39c-34.66-19.65-69.19-39.55-103.46-59.89
		c-8.77-5.2-15.67-5.01-24.45,0.21c-33.77,20.09-67.79,39.8-102.18,58.79c-10.23,5.65-13.65,12.52-13.45,23.86
		c0.14,8.23,0.22,16.47,0.27,24.7c5.8,2.63,12.34,2.96,19.64,0.74c-0.01-6.33-0.02-12.69-0.02-19.17
		c32.54,18.52,63.51,36.1,94.42,53.77c3.82,2.19,4.16,5.96,4.15,10.04c-0.1,33.6-0.06,67.2-0.06,103.54
		c-32.04-18.09-61.28-34.72-90.67-51.06c-5.29-2.94-8.09-6.05-8.02-12.7c0.11-10.01,0.16-20.03,0.19-30.11
		c-0.64-1.33-1.31-2.64-2.06-3.92c-4.78-8.1-10.07-8.74-17.42-2.69c-0.05,0.04-0.09,0.07-0.14,0.1
		c-0.03,11.12-0.07,22.24-0.06,33.36c0,6.02,0.68,11.56-6.37,15.42c-6.93,3.8-13.84,7.64-20.77,11.51
		c-0.08,1.39-0.08,2.79,0.04,4.17c0.65,7.65,5.3,10.69,11.65,11.32c4.55-2.68,9.11-5.37,13.64-8.08c8.9-5.33,15.29-5,23.96,0.25
		c27.43,16.61,55.43,32.26,85.62,49.68c-21.07,12.06-41.96,24.01-62.74,35.91c-1.37,6.88,0.53,14.91,5.24,19.52
		c17.7-10.19,35.4-20.38,53.14-30.49c4.13-2.36,8.46-4.38,14.75-7.62c0,35.25-0.18,67.4,0.13,99.55c0.07,7.84-1.45,12.97-9.14,17.33
		c-17.24,9.78-34.47,19.62-51.73,29.49c-0.04,0.15-0.07,0.31-0.13,0.47c-2.67,8.29,2.73,13.54,9.72,16.15
		c19.22-11.01,38.45-22.01,57.69-32.97c8.81-5.02,12.29-10.78,12.11-21.05c-0.62-35.53,0.24-71.08-0.54-106.61
		c-0.23-10.35,3.24-15.88,11.94-20.73c31.43-17.51,62.36-35.9,93.76-53.46c8.06-4.5,12.37-9.46,12.25-19.35
		C1325.72,514.62,1325.77,474.07,1326.18,433.54z M1303.41,558.2c-31.09,17.39-62,35.1-94.88,53.78c0-36.2,0.06-69.77-0.06-103.34
		c-0.02-4.74,0.69-8.4,5.32-11.01c9.53-5.39,19.06-10.81,28.65-16.27c1.47-1.85,3.26-3.54,5.44-5.01c0.49-0.33,1.02-0.55,1.57-0.68
		c0.17-6.14-3.98-11.37-9.86-14.84c-11.63,6.73-23.11,13.4-34.57,20.12c-4.57,2.68-7.96,1.85-12.07-0.53
		c-29.62-17.19-59.32-34.24-91.54-52.79c19.75-11.55,39.4-20.42,55.93-33.3c28.48-22.19,54.14-24.04,83.06-0.44
		c16.07,13.11,36.01,21.47,57,33.58c-11.47,6.62-22.65,13.06-33.64,19.4c-1.44,7.13,0.96,14.2,7.57,18
		c11.87-6.79,23.94-13.69,36.35-20.78c0,36.34,0.02,69.53-0.03,102.72C1307.64,551.04,1308.6,555.3,1303.41,558.2z"/>
	<path class="st10" d="M1060.15,832.41c-28.25,16.25-56.75,32.66-85.72,49.32c0-30.19,1.4-58.62-0.48-86.83
		c-1.31-19.68,4.98-30.09,22.65-39.64c37.43-20.24,74.4-41.35,111.3-62.57c-1.1-7.28-5.44-13.4-13.62-14.77
		c-41.06,23.51-81.73,46.8-122.35,70.15c-4.75,2.73-8.51,3.69-13.71,0.68c-29.63-17.11-59.48-33.84-91.39-51.92
		c33.1-19.14,64.36-37.25,95.65-55.32c13.59-7.85,27.2-15.65,40.81-23.46c4.51-4.66,12.55-12.45,7.5-17.61
		c-2.4-2.44-7.27-2.65-11.73-2.95c-8.09,4.59-16.26,9.22-24.59,13.93v-18.04c0-73.3-0.38-146.6,0.34-219.9
		c0.13-13.69-4.52-20.97-16.24-27.34c-33.05-17.96-65.65-36.78-97.9-56.15c-9.83-5.91-17.23-6.29-27.22-0.3
		c-33.22,19.92-66.89,39.12-100.76,57.91c-9.57,5.31-12.54,11.82-12.51,22.55c0.07,25.11,0.12,50.22,0.16,75.33
		c6.1-1.17,12.26-2.11,18.43-2.7c0-19.67,0-39.35,0-59.02c0-1.49,0.41-2.98,0.91-6.37c31.87,18.39,62.82,36.24,93.75,54.11
		c6.94,4.01,4.34,10.82,4.35,16.53c0.04,21.77,0.07,43.55,0.09,65.32c4.37,6.16,11.67,5.58,18.4,3.42
		c-0.02-23.86-0.04-47.71-0.11-71.57c-0.02-7.28,1.4-12.18,8.41-16.1c29.4-16.47,58.43-33.6,90.22-52.01
		c0,81.3-0.09,160.04,0.16,238.77c0.02,6.8-3.24,9.66-8.39,12.58c-26.48,15.03-53.04,29.93-79.08,45.7
		c-10.98,6.65-11.32,1.89-11.3-7.41c0.04-15.05,0.06-30.11,0.09-45.16c-2.05-0.74-4.13-1.36-6.27-1.65
		c-5.23-0.71-8.86,1.77-12.13,5.49c-0.05,20.78-0.12,41.56-0.25,62.33c-0.07,10.9,3.21,16.9,12.78,22.1
		c31.59,17.15,62.5,35.54,94.01,52.83c7.75,4.25,10.83,8.81,10.65,17.93c-0.66,32.72-0.26,65.47-0.26,98.29
		c-6.02,2.19-9.41-2.66-13.32-4.89C877.57,837.52,813.89,800.69,750,764.23c-7.25-4.14-11.6-7.93-11.56-17.55
		c0.09-25.99,0.13-51.97,0.18-77.96c-5.8-0.15-11.59,0.74-16.09,4.07c-0.82,0.6-1.54,1.28-2.22,2c-0.04,26.17-0.09,52.35-0.16,78.52
		c-0.03,11.29,3.19,18.13,13.21,23.82c72.68,41.27,145.17,82.87,217.4,124.9c9.86,5.74,17.12,6.07,27.2,0.19
		c31.44-18.35,62.96-36.58,94.51-54.75C1070.75,840.55,1066.2,835.61,1060.15,832.41z M853.08,414.24
		c-6.23,3.65-10.16,0.79-14.89-1.91c-28.83-16.44-57.69-32.83-89.16-50.73c32.33-18.82,62.37-36.27,92.37-53.79
		c3.46-2.02,6.3-3.06,10.46-0.6c30.38,17.93,60.96,35.51,93.44,54.34C913.1,379.88,882.92,396.78,853.08,414.24z"/>
	<path class="st10" d="M735.5,565.06c-3.53-5.2-9.22-7.59-15.09-9.07c0,24.3-0.01,48.6-0.04,72.9c0.27,0.11,0.53,0.23,0.8,0.38
		c5.99,3.36,12.12,4.39,17.5-0.02c0.02-18.83,0.03-37.66,0.04-56.48C738.09,570.02,737.09,567.4,735.5,565.06z"/>
	<path class="st10" d="M737.04,486.98c-4.81-4.38-11.01-1.32-16.67,0.27c0,3.58,0.01,7.16,0.01,10.75c0.26,0.65,0.43,1.38,0.45,2.2
		c0.06,1.67,0.57,2.94,1.37,3.89c3.22,0.17,6.51,0.85,9.64,2.01c0.21-0.04,0.43-0.09,0.64-0.14c2.42-0.6,4.53-1.64,6.26-3.02
		c0-4.69,0-9.38,0-14.07C738.22,488.2,737.67,487.56,737.04,486.98z"/>
	<circle class="st1" cx="738.71" cy="343.72" r="58.34"/>
	<ellipse class="st1" cx="668.02" cy="611.98" rx="40.59" ry="39.71"/>
	<circle class="st1" cx="680.37" cy="530.3" r="24.21"/>
	<circle class="st1" cx="1220.97" cy="733.93" r="58.34"/>
	<circle class="st1" cx="1279.31" cy="663.59" r="29.17"/>
	<circle class="st1" cx="1086.93" cy="360.9" r="29.17"/>
	<circle class="st3" cx="619.08" cy="554.51" r="21.51"/>
	<circle class="st3" cx="1279.31" cy="759.13" r="25.2"/>
	<circle class="st3" cx="656.16" cy="692.76" r="47.17"/>
	<circle class="st3" cx="797.06" cy="285.38" r="25.2"/>
	<circle class="st3" cx="1069.96" cy="310.58" r="25.2"/>
	<circle class="st3" cx="720.37" cy="285.38" r="16.06"/>
</g>
<g id="Capa_6">
	<path class="st11" d="M958.4,323.32c23.06,2.72,43.63,13.43,65.16,20.84c13.64,4.69,27.26,9.45,40.87,14.24"/>
	<path class="st11" d="M1148.18,388.12c22.87,8.12,45.75,16.18,68.7,24.08c10.89,3.75,13.81,8.03,12.18,19.39
		c-7.4,51.66-13.46,103.59-19.08,155.38c-6.41,59.1-13.79,118.15-19.17,177.39c-0.64,7-2.53,11.48-8.9,15
		c-22.47,12.41-44.92,24.84-67.37,37.29"/>
	<path class="st11" d="M1077.72,837.08c-37.63,20.89-75.25,41.78-112.91,62.63c-1.77,0.98-4.27,0.65-6.43,0.93"/>
	<path class="st11" d="M969.53,681.04c5.47-0.2,10.94-0.4,16.42-0.45"/>
	<path class="st11" d="M1008.99,680.87c22.72,1.21,25.66,7.41,37.97,38.06"/>
	<path class="st11" d="M1055.53,739.66c11.28,25.19,17.86,24.84,56.76,25.47c16.72,0.27,15.38-4.36,9.81-16.77
		c-20.33-45.34-40.59-90.72-60.8-136.12"/>
	<path class="st11" d="M1037.06,557.74c-2.12-4.76-4.23-9.52-6.35-14.28"/>
	<path class="st11" d="M1005.12,485.86c-14.62-32.92-29.24-65.84-43.87-98.75"/>
	<path class="st11" d="M958.38,900.64c-73.39-40.54-146.75-81.11-220.21-121.53c-5.53-3.04-8.1-6.62-8.84-13.23
		c-3.19-28.59-6.41-57.18-9.64-85.77"/>
	<path class="st11" d="M714.06,630.34c-0.56-4.9-1.11-9.8-1.67-14.71"/>
	<path class="st11" d="M701.05,516.49c-3.32-28.88-6.65-57.75-9.99-86.63c-0.85-7.31-1.91-12.73,7.36-15.93
		c86.75-29.96,173.35-60.35,259.99-90.61"/>
	<path class="st11" d="M960.03,387.69c-4.08,3.68-5.25,9.09-7.38,13.84c-10.86,24.26-21.68,48.54-32.5,72.82"/>
	<path class="st11" d="M905.4,507.52c-5.79,13-11.57,26-17.36,39"/>
	<path class="st11" d="M859.25,611.14c-2.57,5.78-5.15,11.57-7.73,17.35"/>
	<path class="st11" d="M829.13,678.68c-10.79,24.1-21.63,48.18-32.56,72.22c-5.22,11.47-3.79,15.06,9.12,14.08
		c11.46-0.87,23.1-0.9,34.55,0.03c10.81,0.87,16.59-2.54,20.33-13.2c2.44-6.96,5.11-13.84,7.86-20.69"/>
	<path class="st11" d="M879.08,704.94c1.87-4.68,3.69-9.37,5.43-14.09c2.86-7.77,6.79-10.75,15.07-10.45
		c6.72,0.24,13.45,0.39,20.18,0.5"/>
	<path class="st11" d="M923.07,680.95c2.74,0.04,5.47,0.07,8.21,0.1"/>
	<path class="st11" d="M959.85,511.41c0.87,0.13,2.02,1.79,3.58,5.49c10.45,24.85,21.05,49.63,31.53,74.46
		c4.85,11.5,9.53,23.07,14.65,35.47c-18.15,0-34.7,0-51.26,0"/>
	<path class="st11" d="M952.83,626.83c-13.56,0-27.28,0-42.3,0c6.67-15.69,12.99-31.35,19.39-46.87"/>
	<path class="st11" d="M944.03,546.76c4.31-9.72,8.79-19.35,13.56-28.87c0,0.02,0,0.03,0,0.05"/>
	<circle class="st12" cx="662.78" cy="372.04" r="86.09"/>
	<circle class="st12" cx="1172.01" cy="699.9" r="43.81"/>
	<circle class="st12" cx="1229.48" cy="656.09" r="20.89"/>
	<circle class="st12" cx="1125.87" cy="348.28" r="58.34"/>
	<circle class="st12" cx="698.58" cy="569.12" r="50.22"/>
	<circle class="st12" cx="774.01" cy="307.66" r="25.14"/>
	<circle class="st13" cx="737.59" cy="272.07" r="25.2"/>
	<circle class="st13" cx="671.91" cy="660.4" r="20.73"/>
	<circle class="st13" cx="1114.55" cy="289.93" r="25.2"/>
	<circle class="st13" cx="1158.07" cy="639.87" r="20.53"/>
	<circle class="st13" cx="1137.57" cy="855.35" r="38.71"/>
</g>
</svg>
