<?xml version="1.0" encoding="utf-8"?>
<!-- Generator: Adobe Illustrator 24.1.2, SVG Export Plug-In . SVG Version: 6.00 Build 0)  -->
<svg version="1.1" id="Capa_1" xmlns="http://www.w3.org/2000/svg" xmlns:xlink="http://www.w3.org/1999/xlink" x="0px" y="0px"
	 viewBox="0 0 1920 1080" style="enable-background:new 0 0 1920 1080;" xml:space="preserve">
<style type="text/css">
	.st0{fill:#C2BEF9;}
	.st1{fill:none;stroke:#5839F6;stroke-width:20;stroke-linecap:round;stroke-linejoin:round;stroke-miterlimit:10;}
	.st2{fill:none;stroke:#5839F6;stroke-width:10;stroke-linecap:round;stroke-linejoin:round;stroke-miterlimit:10;}
	.st3{fill:none;stroke:#5839F6;stroke-width:10;stroke-miterlimit:10;}
	.st4{fill:none;stroke:#5839F6;stroke-width:3;stroke-linecap:round;stroke-linejoin:round;stroke-miterlimit:10;}
	.st5{fill:none;stroke:#5839F6;stroke-width:7;stroke-linecap:round;stroke-linejoin:round;stroke-miterlimit:10;}
	.st6{fill:none;stroke:#5839F6;stroke-width:6;stroke-linecap:round;stroke-linejoin:round;stroke-miterlimit:10;}
	.st7{fill:none;stroke:#5839F6;stroke-width:4;stroke-linecap:round;stroke-linejoin:round;stroke-miterlimit:10;}
</style>
<circle class="st0" cx="613.89" cy="361.32" r="108.6"/>
<path class="st1" d="M639.5,422.26c-16.38-28.37-32.77-56.75-49.18-85.16c42.38,0,83.44,0,124.5,0
	c23.34,40.42,46.68,80.85,70.01,121.27c37.58,65.09,75.2,130.17,112.67,195.32c2.88,5.01,4.28,5.71,7.48,0.14
	c20.84-36.39,41.99-72.6,62.95-108.91c29.28-50.7,58.57-101.39,87.68-152.19c10.6-18.5,22.19-36.45,31.51-55.68
	c41.18,0,82.36,0,125.18,0c-6.74,11.68-13.48,23.35-20.22,35.03"/>
<path class="st1" d="M1160.34,427.04c-21.58,37.37-43.14,74.71-64.71,112.06"/>
<path class="st1" d="M1035.84,642.65c-3.18,5.5-6.36,11.01-9.53,16.51"/>
<path class="st1" d="M985.37,730.06c-27.98,48.46-56,96.98-84.07,145.59c-24.84-43.01-49.63-85.95-74.39-128.84"/>
<path class="st2" d="M815.21,726.56c-7.64-13.24-15.29-26.47-22.93-39.7"/>
<path class="st1" d="M747.07,608.55c-17.14-29.69-34.28-59.37-51.42-89.05"/>
<path class="st1" d="M677.84,488.67c-2.13-3.69-4.26-7.38-6.39-11.07"/>
<path class="st1" d="M785.01,458.67c-0.06-0.1-0.12-0.2-0.18-0.31c-23.34-40.42-46.68-80.85-70.01-121.27
	c36.92-0.11,73.84-0.12,110.76-0.44c4.6-0.04,5.74,2.91,7.39,5.76c5.35,9.26,10.7,18.53,16.05,27.8"/>
<path class="st1" d="M876.24,417.38c6.89,11.94,13.78,23.89,20.67,35.83c1.26,2.18,2.63,4.3,4.35,7.1c1.88-3.02,3.45-5.39,4.86-7.84
	c8.74-15.13,17.48-30.25,26.22-45.38"/>
<path class="st1" d="M949.35,377.63c4.56-7.9,9.12-15.8,13.67-23.7"/>
<path class="st1" d="M969.01,343.55c0.23-0.39,0.45-0.78,0.68-1.17c1.71-2.97,2.98-5.74,7.46-5.7c17.63,0.13,35.26,0.2,52.88,0.24"
	/>
<path class="st2" d="M1071.26,337c5.29,0.01,10.58,0.02,15.87,0.03c-9.32,19.23-20.91,37.18-31.51,55.68
	c-22.08,38.52-44.26,76.99-66.46,115.44"/>
<path class="st3" d="M958.67,560.93c-17.92,30.95-35.91,61.85-53.69,92.89c-3.19,5.58-4.59,4.88-7.48-0.14
	c-21.99-38.24-44.04-76.45-66.09-114.65"/>
<path class="st2" d="M814.01,508.89c-3.08-5.34-6.16-10.67-9.24-16.01"/>
<circle class="st0" cx="1036.63" cy="242.08" r="42.35"/>
<circle class="st0" cx="1179.47" cy="468.19" r="62.23"/>
<circle class="st0" cx="1102.99" cy="575.06" r="35.96"/>
<circle class="st0" cx="763.37" cy="713.5" r="67.72"/>
<path class="st4" d="M698.03,212.68c-1.53-3.26-2.38-6.9-2.38-10.74c0-13.98,11.33-25.31,25.31-25.31s25.31,11.33,25.31,25.31
	c0,6.61-2.54,12.63-6.69,17.14"/>
<path class="st4" d="M732.27,224.59c-3.4,1.7-7.25,2.66-11.31,2.66c-1.34,0-2.65-0.1-3.94-0.3"/>
<circle class="st5" cx="1255.18" cy="575.06" r="25.31"/>
<path class="st6" d="M798.16,257.97c3.62,0.86,6.94,2.5,9.78,4.73"/>
<path class="st6" d="M817.53,280.77c0.04,0.6,0.06,1.21,0.06,1.83c0,4.16-1,8.08-2.78,11.54"/>
<path class="st6" d="M793.31,307.89c-0.34,0.01-0.68,0.02-1.03,0.02c-13.98,0-25.31-11.33-25.31-25.31
	c0-11.07,7.1-20.47,16.99-23.91"/>
<circle class="st7" cx="792.28" cy="683.04" r="25.31"/>
<circle class="st4" cx="1117.25" cy="282.6" r="25.31"/>
<circle class="st6" cx="1142.56" cy="625.5" r="23.51"/>
</svg>

